<svg width="42" height="21" viewBox="0 0 42 21" fill="none" xmlns="http://www.w3.org/2000/svg">
<rect x="0.299805" y="0.904785" width="41" height="20" rx="4" fill="#FF0000"/>
<path d="M7.24918 5.97678H8.95318L11.9172 10.6568C12.3972 11.4368 13.0332 12.7328 13.0332 12.7328H13.0692C13.0692 12.7328 12.9732 11.3408 12.9732 10.4528V5.97678H14.5452V14.9048H12.8412L9.88918 10.2488C9.39718 9.45678 8.76118 8.16078 8.76118 8.16078H8.73718C8.73718 8.16078 8.82118 9.55279 8.82118 10.4408V14.9048H7.24918V5.97678ZM16.214 5.97678H22.742V7.39278H17.87V9.60078H22.178V10.9328H17.87V13.4528H22.85V14.9048H16.214V5.97678ZM23.5456 5.97678H25.2496L26.3056 10.2968C26.5696 11.3888 26.7736 13.2128 26.7736 13.2128H26.7976C26.7976 13.2128 27.0856 11.3168 27.3376 10.2488L28.4296 5.97678H30.0616L31.1416 10.2368C31.3936 11.3168 31.6576 13.2128 31.6576 13.2128H31.6816C31.6816 13.2128 31.9216 11.3768 32.1976 10.2848L33.2536 5.97678H34.9576L32.4856 14.9048H30.8656L29.7256 10.2368C29.4856 9.28878 29.2576 7.56078 29.2576 7.56078H29.2336C29.2336 7.56078 28.9936 9.28878 28.7776 10.2368L27.5776 14.9048H25.9216L23.5456 5.97678Z" fill="white"/>
</svg>
